<?xml version="1.0" encoding="UTF-8" standalone="no" ?>
<!DOCTYPE svg PUBLIC "-//W3C//DTD SVG 1.1//EN" "http://www.w3.org/Graphics/SVG/1.1/DTD/svg11.dtd">
<svg xmlns="http://www.w3.org/2000/svg" xmlns:xlink="http://www.w3.org/1999/xlink" version="1.1" width="44" height="75" viewBox="0 0 44 75" xml:space="preserve">
<desc>Created with Fabric.js 3.6.6</desc>
<defs>
</defs>
<g transform="matrix(2.33 0 0 2.33 7.2 12.26)"  >
<path style="stroke: none; stroke-width: 1; stroke-dasharray: none; stroke-linecap: butt; stroke-dashoffset: 0; stroke-linejoin: miter; stroke-miterlimit: 4; fill: rgb(255,102,0); fill-rule: nonzero; opacity: 1;"  transform=" translate(-12, -12)" d="M 15.02 12 c 0 -0.09 -0.04 -0.18 -0.1 -0.24 l -4.83 -4.85 C 9.96 6.78 9.75 6.77 9.62 6.9 c 0 0 -0.01 0.01 -0.01 0.01 L 9.09 7.43 C 8.95 7.56 8.95 7.76 9.07 7.9 c 0 0 0.01 0.01 0.01 0.01 l 4.1 4.09 l -4.1 4.09 c -0.13 0.13 -0.14 0.33 -0.01 0.47 c 0 0 0.01 0.01 0.01 0.01 l 0.52 0.52 c 0.13 0.13 0.33 0.14 0.47 0.01 c 0 0 0.01 -0.01 0.01 -0.01 l 4.85 -4.85 C 14.99 12.17 15.02 12.09 15.02 12 L 15.02 12 z" stroke-linecap="round" />
</g>
</svg>